<?xml version="1.0" encoding="utf-8"?><!-- Uploaded to: SVG Repo, www.svgrepo.com, Generator: SVG Repo Mixer Tools -->
<svg fill="#000000" width="800px" height="800px" viewBox="-1 0 19 19" xmlns="http://www.w3.org/2000/svg" class="cf-icon-svg"><path d="M16.417 9.579A7.917 7.917 0 1 1 8.5 1.662a7.917 7.917 0 0 1 7.917 7.917zm-3.122-2.755a.317.317 0 0 0-.317-.317H7.752l-.436-.852a.57.57 0 0 0-.46-.282H4.037a.318.318 0 0 0-.316.317v7.438a.318.318 0 0 0 .316.316h8.94a.317.317 0 0 0 .317-.316zm-.792.475v5.354h-7.99V6.165h2.174l.582 1.134z"/></svg>